<?xml version="1.0" standalone="no"?>
<!DOCTYPE svg PUBLIC "-//W3C//DTD SVG 20010904//EN"
 "http://www.w3.org/TR/2001/REC-SVG-20010904/DTD/svg10.dtd">
<svg version="1.0" xmlns="http://www.w3.org/2000/svg"
 width="24.000000pt" height="24.000000pt" viewBox="0 0 24.000000 24.000000"
 preserveAspectRatio="xMidYMid meet">

<g transform="translate(0.000000,24.000000) scale(0.100000,-0.100000)"
fill="#000000" stroke="none">
<path d="M10 120 c0 -71 4 -110 11 -110 5 0 7 4 4 10 -7 11 38 60 55 60 12 0
14 37 2 44 -5 3 -9 21 -10 40 -1 26 4 39 21 51 20 14 19 15 -31 15 l-52 0 0
-110z"/>
<path d="M155 216 c20 -14 31 -81 15 -91 -13 -8 -13 -45 0 -45 6 0 22 -11 35
-25 l25 -24 0 99 0 100 -47 0 c-42 0 -45 -1 -28 -14z"/>
<path d="M103 202 c-13 -8 -15 -70 -1 -78 18 -12 7 -46 -22 -62 -16 -9 -30
-20 -30 -24 0 -5 34 -8 75 -8 41 0 75 3 75 8 0 4 -14 15 -30 24 -29 16 -40 50
-21 62 12 8 11 58 -1 74 -12 14 -27 15 -45 4z"/>
</g>
</svg>
