<svg width="50" height="50" xmlns="http://www.w3.org/2000/svg">

 <g>
  <title>background</title>
  <rect fill="none" id="canvas_background" height="402" width="582" y="-1" x="-1"/>
 </g>
 <g>
  <title>Layer 1</title>
  <path id="svg_2" stroke-width="3" stroke-miterlimit="10" stroke-linecap="round" stroke="#ffffff" fill="none" d="m30.933001,32.528c-0.146,-1.612 -0.09,-2.737 -0.09,-4.209999c0.73,-0.383001 2.038,-2.825001 2.259001,-4.888c0.573997,-0.047001 1.479,-0.607 1.743999,-2.818001c0.142998,-1.187 -0.424999,-1.855 -0.771,-2.064999c0.933998,-2.809001 2.874001,-11.499001 -3.588001,-12.397001c-0.664999,-1.168 -2.368,-1.759 -4.580999,-1.759c-8.854,0.163 -9.922,6.686 -7.981001,14.156001c-0.344999,0.209999 -0.913,0.877998 -0.771,2.064999c0.266001,2.211 1.17,2.771 1.744001,2.818001c0.219999,2.062 1.58,4.504999 2.311998,4.888c0,1.473 0.055,2.598 -0.091,4.209999c-1.751999,4.709999 -13.572999,3.388 -14.118999,12.472l38,0c-0.544998,-9.084 -12.314999,-7.762001 -14.066999,-12.472z"/>
 </g>
</svg>