<?xml version="1.0" ?>
<!DOCTYPE svg  PUBLIC '-//W3C//DTD SVG 1.1//EN'  'http://www.w3.org/Graphics/SVG/1.1/DTD/svg11.dtd'>
<svg enable-background="new 0 0 128 128" id="Layer_1" version="1.1" viewBox="20 20 92 92" xml:space="preserve" xmlns="http://www.w3.org/2000/svg" xmlns:xlink="http://www.w3.org/1999/xlink"><g><path d="M64,20.9c-23.8,0-43.1,19.3-43.1,43.1s19.3,43.1,43.1,43.1s43.1-19.3,43.1-43.1S87.8,20.9,64,20.9z M64,103.4   c-21.8,0-39.4-17.7-39.4-39.4S42.2,24.6,64,24.6c21.8,0,39.4,17.7,39.4,39.4S85.8,103.4,64,103.4z"/><path d="M50,58.3c4.4,0,7.9-3.5,7.9-7.9c0-4.4-3.5-7.9-7.9-7.9s-7.9,3.5-7.9,7.9C42.1,54.7,45.6,58.3,50,58.3z"/><path d="M78,58.3c4.4,0,7.9-3.5,7.9-7.9c0-4.4-3.5-7.9-7.9-7.9c-4.4,0-7.9,3.5-7.9,7.9C70.2,54.7,73.7,58.3,78,58.3z"/><path d="M84.2,81c-10.2,4.9-15.8,2.7-21.9,0.4C56.8,79.2,51,77,42.2,81c-0.9,0.4-1.3,1.5-0.9,2.4c0.4,0.9,1.5,1.3,2.4,0.9   c7.4-3.3,12-1.6,17.4,0.5c3.5,1.3,7.2,2.8,11.9,2.8c3.6,0,7.8-0.9,12.8-3.3c0.9-0.4,1.3-1.5,0.9-2.4C86.2,80.9,85.2,80.6,84.2,81z"/></g></svg>