<?xml version="1.0" ?><!DOCTYPE svg  PUBLIC '-//W3C//DTD SVG 1.1//EN'  'http://www.w3.org/Graphics/SVG/1.1/DTD/svg11.dtd'>
<svg enable-background="new 0 0 128 128" id="Layer_1" version="1.1" viewBox="20 20 92 92" xml:space="preserve" xmlns="http://www.w3.org/2000/svg" xmlns:xlink="http://www.w3.org/1999/xlink">
<g><path d="M64,20.9c-23.8,0-43.1,19.3-43.1,43.1c0,23.8,19.3,43.1,43.1,43.1c23.8,0,43.1-19.3,43.1-43.1   C107.1,40.2,87.8,20.9,64,20.9z M64,103.4c-21.8,0-39.4-17.7-39.4-39.4c0-21.8,17.7-39.4,39.4-39.4c21.8,0,39.4,17.7,39.4,39.4   C103.4,85.8,85.8,103.4,64,103.4z"/><path d="M50.1,59.3c4.4,0,7.9-3.5,7.9-7.9s-3.5-7.9-7.9-7.9c-4.4,0-7.9,3.5-7.9,7.9S45.7,59.3,50.1,59.3z"/><path d="M78.2,43.5c-4.4,0-7.9,3.5-7.9,7.9s3.5,7.9,7.9,7.9c4.4,0,7.9-3.5,7.9-7.9S82.5,43.5,78.2,43.5z"/><path d="M81.9,73.9H46.1c-2.2,0-3.9,1.5-3.9,3.3v10.9c0,1.9,1.7,3.3,3.9,3.3h35.8c2.2,0,3.9-1.5,3.9-3.3V77.2   C85.8,75.4,84.1,73.9,81.9,73.9z M46.1,77.5h35.8c0.1,0,0.2,0,0.2,0v4.5H45.8v-4.5C45.9,77.6,46,77.5,46.1,77.5z"/><path d="M39.1,42.8c-0.9-0.5-2-0.1-2.5,0.8c-1.1,2.1-1.7,4.9-1.7,7.8c0,2.9,0.6,5.7,1.7,7.8c0.3,0.6,1,1,1.6,1   c0.3,0,0.6-0.1,0.8-0.2c0.9-0.5,1.2-1.6,0.8-2.5c-0.8-1.6-1.3-3.8-1.3-6.1c0-2.3,0.5-4.6,1.3-6.1C40.4,44.3,40,43.2,39.1,42.8z"/><path d="M88.9,42.8c-0.9,0.5-1.2,1.6-0.8,2.5c0.8,1.6,1.3,3.8,1.3,6.1c0,2.3-0.5,4.6-1.3,6.1c-0.5,0.9-0.1,2,0.8,2.5   c0.3,0.1,0.6,0.2,0.8,0.2c0.7,0,1.3-0.4,1.6-1c1.1-2.1,1.7-4.9,1.7-7.8c0-2.9-0.6-5.7-1.7-7.8C90.9,42.7,89.8,42.3,88.9,42.8z"/></g>
</svg>