<?xml version="1.0" encoding="iso-8859-1"?>
<svg version="1.1" xmlns="http://www.w3.org/2000/svg" xml:space="preserve" viewBox="0 0 92 92" x="0px" y="0px" style="enable-background:new 0 0 92 92;">
 <g>
  <g stroke="null" id="svg_1">
   <path stroke="null" id="svg_2" d="m47,2.9c-23.8,0 -43.1,19.3 -43.1,43.1c0,23.8 19.3,43.1 43.1,43.1c23.8,0 43.1,-19.3 43.1,-43.1c0,-23.8 -19.3,-43.1 -43.1,-43.1zm0,82.5c-21.8,0 -39.4,-17.7 -39.4,-39.4c0,-21.8 17.7,-39.4 39.4,-39.4c21.8,0 39.4,17.7 39.4,39.4c0,21.8 -17.6,39.4 -39.4,39.4z"/>
   <path stroke="null" id="svg_3" d="m21.8,38c0.1,0 0.2,0 0.3,0c0.9,0 1.6,-0.6 1.8,-1.5c0.6,-2.9 3.1,-5 6,-5c2.9,0 5.4,2.1 6,4.9c0.2,1 1.2,1.6 2.2,1.4c1,-0.2 1.6,-1.2 1.4,-2.2c-0.9,-4.5 -5,-7.8 -9.6,-7.8c-4.7,0 -8.8,3.3 -9.6,8c-0.1,1 0.5,2 1.5,2.2z"/>
   <path stroke="null" id="svg_4" d="m55.5,38c0.1,0 0.2,0 0.3,0c0.9,0 1.6,-0.6 1.8,-1.5c0.6,-2.9 3.1,-5 6,-5c2.9,0 5.4,2.1 6,4.9c0.2,1 1.2,1.6 2.2,1.4c1,-0.2 1.6,-1.2 1.4,-2.2c-0.9,-4.5 -5,-7.8 -9.6,-7.8c-4.7,0 -8.8,3.3 -9.6,8c-0.1,1 0.5,2 1.5,2.2z"/>
   <path stroke="null" id="svg_5" d="m72.8,49.8c-1.1,-0.3 -2.3,0.4 -2.6,1.5c-2.2,8.2 -12,14.2 -23.3,14.2c-11.3,0 -21.1,-6 -23.3,-14.2c-0.3,-1.1 -1.4,-1.8 -2.6,-1.5c-1.1,0.3 -1.8,1.4 -1.5,2.6c2.7,10 14.2,17.3 27.3,17.3c13.2,0 24.7,-7.3 27.3,-17.3c0.5,-1.1 -0.2,-2.3 -1.3,-2.6z"/>
  </g>
 </g>
</svg>