<?xml version="1.0" encoding="UTF-8"?>
<svg width="28px" height="16px" viewBox="0 0 28 16" version="1.1" xmlns="http://www.w3.org/2000/svg" xmlns:xlink="http://www.w3.org/1999/xlink">
    <title>icon-lookers-color@3x</title>
    <g id="V2" stroke="none" stroke-width="1" fill="none" fill-rule="evenodd">
        <g id="icon-lookers-color" fill="#995BBE" fill-rule="nonzero">
            <path d="M11.1115789,8.82554373 C11.2,8.76631189 11.2884211,8.76631189 11.3768421,8.82554373 C12.1136842,9.35863026 13.0273684,9.68440537 14,9.68440537 C14.9726316,9.68440537 15.8863158,9.35863026 16.6231579,8.82554373 C16.7115789,8.76631189 16.8,8.76631189 16.8884211,8.82554373 C18.6273684,9.95094863 19.4821053,12.1721425 19.5115789,14.6894956 C19.5115789,16.4368348 8.51789474,16.4368348 8.51789474,14.6894956 C8.51789474,12.1425266 9.37263158,9.95094863 11.1115789,8.82554373 Z M19.6294737,6.87089311 C19.7178947,6.81166127 19.8063158,6.81166127 19.8947368,6.87089311 C20.6315789,7.40397964 21.5452632,7.72975474 22.5178947,7.72975474 C23.4905263,7.72975474 24.4042105,7.40397964 25.1410526,6.87089311 C25.2294737,6.81166127 25.3178947,6.81166127 25.4063158,6.87089311 C27.1452632,7.99629801 28,10.187876 28,12.734845 C28,13.830634 23.8442105,14.2156409 20.6315789,13.9787136 C20.4842105,11.5798242 19.6,9.59555761 18.1557895,8.35168903 C18.5684211,7.75937066 19.04,7.25590005 19.6294737,6.87089311 Z M2.59368421,6.87089311 C2.68210526,6.81166127 2.77052632,6.81166127 2.85894737,6.87089311 C3.59578947,7.40397964 4.50947368,7.72975474 5.48210526,7.72975474 C6.45473684,7.72975474 7.36842105,7.40397964 8.10526316,6.87089311 C8.19368421,6.81166127 8.28210526,6.81166127 8.37052632,6.87089311 C8.96,7.25590005 9.46105263,7.75937066 9.84421053,8.35168903 C8.4,9.59555761 7.51578947,11.5798242 7.36842105,13.9787136 C4.18526316,14.2156409 1.33226763e-14,13.801018 1.33226763e-14,12.734845 C1.33226763e-14,10.187876 0.854736842,7.99629801 2.59368421,6.87089311 Z M14,1.95465062 C15.8068432,1.95465062 17.2715789,3.42645495 17.2715789,5.24201758 C17.2715789,7.05758022 15.8068432,8.52938454 14,8.52938454 C12.1931568,8.52938454 10.7284211,7.05758022 10.7284211,5.24201758 C10.7284211,3.42645495 12.1931568,1.95465062 14,1.95465062 Z M5.48210526,-2.66453526e-14 C7.28894842,-2.66453526e-14 8.75368421,1.47180432 8.75368421,3.28736696 C8.75368421,5.1029296 7.28894842,6.57473392 5.48210526,6.57473392 C3.6752621,6.57473392 2.21052632,5.1029296 2.21052632,3.28736696 C2.21052632,1.47180432 3.6752621,-2.66453526e-14 5.48210526,-2.66453526e-14 Z M22.5178947,-2.66453526e-14 C24.3247379,-2.66453526e-14 25.7894737,1.47180432 25.7894737,3.28736696 C25.7894737,5.1029296 24.3247379,6.57473392 22.5178947,6.57473392 C20.7110516,6.57473392 19.2463158,5.1029296 19.2463158,3.28736696 C19.2463158,1.47180432 20.7110516,-2.66453526e-14 22.5178947,-2.66453526e-14 Z" id="icon-lookers"></path>
        </g>
    </g>
</svg>