<?xml version="1.0" encoding="UTF-8"?>
<svg width="20px" height="19px" viewBox="0 0 20 19" version="1.1" xmlns="http://www.w3.org/2000/svg" xmlns:xlink="http://www.w3.org/1999/xlink">
    <title>icon-nav-visitors@1.5x</title>
    <defs>
        <polygon id="path-1" points="0.00166927382 0.00452903251 6.34766419 0.00452903251 6.34766419 17.4375962 0.00166927382 17.4375962"></polygon>
    </defs>
    <g id="V2" stroke="none" stroke-width="1" fill="none" fill-rule="evenodd">
        <g id="icon-nav-visitors">
            <path d="M4.18650787,1.08584217 C5.38948247,1.08729887 6.36441631,2.06210028 6.36574059,3.26507488 C6.36574059,4.46871162 5.39001218,5.4443076 4.18650787,5.4443076 C2.98300356,5.4443076 2.00727515,4.46871162 2.00727515,3.26507488 C2.00727515,2.06157057 2.98300356,1.08584217 4.18650787,1.08584217" id="Fill-1" fill="#FFFFFF"></path>
            <path d="M10.6252294,11.3571449 C10.4493653,11.5327443 10.2107303,11.6312706 9.9621632,11.6311383 L9.33948744,11.6311383 L9.33948744,9.76324332 L9.89051973,9.76324332 C10.1743126,9.76483246 10.4451276,9.88163382 10.6408559,10.0870294 C10.8110257,10.2613045 10.9033279,10.4972909 10.8961768,10.7408257 C10.8834638,10.9723096 10.7873211,11.1913453 10.6252294,11.3571449 L10.6252294,11.3571449 Z M8.71694411,11.6311382 L5.29235988,11.6311382 C5.1897283,11.6311382 2.80178929,11.6030635 2.80178929,9.14069999 C2.80178929,8.96867622 2.66247519,8.82922969 2.49058384,8.82922969 C2.31856006,8.82922969 2.17924596,8.96867622 2.17924596,9.14069999 C2.17924596,11.6311382 4.19347358,12.1291993 4.98102201,12.2258716 L4.98102201,17.4294916 C4.98049229,17.6012505 4.84144305,17.7402998 4.66981656,17.7408295 L0.311351121,17.7408295 C0.139592198,17.7402998 0.000542954189,17.6012505 1.32427851e-05,17.4294916 L1.32427851e-05,8.62078825 C0.00425093402,7.9182585 0.287514107,7.24618716 0.787561673,6.75276098 C1.23556509,6.29310391 1.84883847,6.03182376 2.49058384,6.02745364 L2.5060779,6.02745364 C3.87498459,6.03712088 4.97996258,7.14911754 4.98102201,8.51802424 C4.98088958,9.20558964 5.53814598,9.76311089 6.22571138,9.76324332 L6.22637352,9.76324332 L8.71694411,9.76324332 L8.71694411,11.6311382 Z" id="Fill-3" fill="#FFFFFF"></path>
            <g id="Group-7" transform="translate(12.183362, 0.127925)">
                <mask id="mask-2" fill="white">
                    <use xlink:href="#path-1"></use>
                </mask>
                <g id="Clip-6"></g>
                <path d="M6.26778371,16.712951 C6.26685671,16.9074875 6.19018099,17.0899731 6.05192631,17.2267711 C5.91459863,17.3627745 5.73277519,17.4375962 5.53956295,17.4375962 L5.5359874,17.4375962 L3.15705348,17.4256777 C2.96238454,17.4246183 2.77989896,17.3479426 2.64296857,17.2096879 C2.5061706,17.0714332 2.43121643,16.8881531 2.43226478,16.6936165 L2.44657806,13.8425773 C2.44737263,13.8416503 2.44829963,13.8407233 2.44922662,13.8396639 C2.4747852,13.8151648 2.49888706,13.7892089 2.52312136,13.763253 C2.53305345,13.752394 2.54338282,13.7419322 2.55305006,13.7309407 C2.57529793,13.7057794 2.59622154,13.6795586 2.61714514,13.6530731 C2.62734208,13.6400951 2.63767145,13.6273821 2.64747111,13.6142717 C2.66693801,13.5881834 2.68521305,13.561433 2.70322324,13.5342853 C2.71315533,13.5194534 2.72295499,13.504489 2.73262222,13.4893923 C2.74904328,13.4629067 2.76480219,13.4360238 2.78003139,13.4086113 C2.7895662,13.3912632 2.79896858,13.3736503 2.8081061,13.355905 C2.82161374,13.3296843 2.83445924,13.3033311 2.84677503,13.2764483 C2.85630983,13.2552598 2.8651825,13.2338065 2.87392274,13.2122208 C2.88385483,13.1875892 2.89405177,13.1629576 2.90318929,13.1377963 C2.91298895,13.1101189 2.92146434,13.0819118 2.93020458,13.0537046 C2.93629626,13.0333107 2.9431825,13.0133141 2.94874447,12.992523 C2.96198726,12.9423328 2.97377334,12.8917454 2.98277843,12.8403634 L4.22971908,5.80063122 C4.31526747,5.31779927 4.20760363,4.83059721 3.92672415,4.42881111 C3.89163077,4.37848853 3.85428612,4.33041722 3.81508748,4.28446475 C3.70874791,4.160115 3.58651701,4.05324572 3.45342702,3.9627975 C3.38972922,3.91949359 3.32417743,3.87870582 3.25531495,3.84374486 C3.09587182,3.76283145 2.92345076,3.70496048 2.74242188,3.67291294 C2.74149489,3.67278051 2.74056789,3.67278051 2.7396409,3.67264808 C2.6873319,3.66351056 2.63449318,3.65741888 2.58165447,3.65291633 C2.56430642,3.6513272 2.5470908,3.65013535 2.52974275,3.64920835 C2.51888367,3.64854621 2.50828944,3.64722193 2.49743036,3.64682465 L2.51212985,0.729174234 C2.51292442,0.53463772 2.58973257,0.352152142 2.72798725,0.215354171 C2.86531493,0.0793507684 3.04713837,0.00452903251 3.2403506,0.00452903251 L3.24405858,0.00452903251 L5.6229925,0.0164475391 C6.02451374,0.0184339569 6.34962412,0.346855028 6.34777802,0.748376272 L6.26778371,16.712951 Z M0.970669663,13.6755858 L0.970802091,13.6755858 C0.66211277,13.6208931 0.393284232,13.449399 0.213579638,13.192489 C0.0341399,12.9357114 -0.0347225826,12.6241087 0.0199701199,12.3155518 L1.26691077,5.27581965 C1.35524014,4.77669907 1.74908057,4.40854965 2.22145072,4.32578224 C2.2541604,4.32008784 2.28687007,4.31585015 2.31944733,4.31280431 C2.32368502,4.31240703 2.32779028,4.31214217 2.33202797,4.31187732 C2.36049996,4.30962604 2.38883952,4.30830177 2.41717908,4.30801969 C2.43095158,4.30790448 2.4448565,4.30856662 2.458629,4.3089639 C2.47889046,4.30949362 2.49915192,4.3098909 2.51914853,4.31161246 C2.55199063,4.31426102 2.58496517,4.31823385 2.6179397,4.32379582 C2.62098554,4.32432554 2.62389896,4.32445796 2.6269448,4.32498767 C2.81989218,4.35915406 2.99721307,4.43900805 3.14698897,4.55686884 C3.23677505,4.62745289 3.31676147,4.71180943 3.38416725,4.8082169 C3.56360699,5.06499451 3.63246947,5.37659724 3.57777677,5.68515413 L2.33083612,12.7248863 C2.32421473,12.7619661 2.31560692,12.7981189 2.30567483,12.8338744 C2.30103985,12.8509576 2.29494817,12.8675111 2.28951863,12.8843294 C2.28369181,12.9020747 2.27812984,12.9196876 2.27164087,12.9369033 C2.2636952,12.9580917 2.25442525,12.978618 2.24528773,12.9991443 C2.23985819,13.0109304 2.23482593,13.0229814 2.22913153,13.034635 C2.21800759,13.0572802 2.20582423,13.0795281 2.19324358,13.1015111 C2.18834375,13.109854 2.18357635,13.1183294 2.17854409,13.1266724 C2.16450674,13.1499797 2.14940997,13.1727573 2.13365105,13.1950051 C2.12928093,13.2012292 2.12491081,13.2074534 2.12040827,13.213545 C2.10332507,13.2367199 2.08544731,13.2592326 2.06677499,13.2810832 C2.06280215,13.2857182 2.05882932,13.2902208 2.05485648,13.2947233 C2.03485987,13.317236 2.01420113,13.3392191 1.99235053,13.3604075 C1.98917227,13.3634534 1.98586157,13.3663668 1.9826833,13.369545 C1.95964085,13.3912632 1.93593627,13.4123192 1.91117226,13.4323158 C1.65624865,13.637579 1.31802792,13.7368999 0.970669663,13.6755858 L0.970669663,13.6755858 Z" id="Fill-5" fill="#FFFFFF" mask="url(#mask-2)"></path>
            </g>
        </g>
    </g>
</svg>