<?xml version="1.0" encoding="UTF-8"?>
<svg width="18px" height="20px" viewBox="0 0 18 20" version="1.1" xmlns="http://www.w3.org/2000/svg" xmlns:xlink="http://www.w3.org/1999/xlink">
    <title>icon-nav-sales@1.5x</title>
    <g id="V2" stroke="none" stroke-width="1" fill="none" fill-rule="evenodd">
        <path d="M17.3935218,11.0574948 L17.4888689,11.0659204 C17.7680221,11.1157406 17.9805061,11.3798474 18,11.6799688 L18,11.6799688 L18,14.6589512 C18,14.8368009 17.9350202,14.9924194 17.8267205,15.1035755 C17.7184208,15.2147315 17.5668013,15.2814252 17.3935218,15.2814252 C17.0469629,15.2814252 16.7870437,14.9924194 16.7870437,14.6589512 L16.7870437,14.6589512 L16.7870437,13.1916912 L12.368417,17.7046273 C12.2384574,17.8157834 12.0868378,17.882477 11.9352183,17.882477 C11.7619388,17.882477 11.6103193,17.8157834 11.5020196,17.7046273 L11.5020196,17.7046273 L8.51294858,14.63672 L3.46618379,19.8165925 C3.24958444,20.0611358 2.85970562,20.0611358 2.62144633,19.8165925 C2.38318705,19.5942804 2.38318705,19.1941186 2.62144633,18.9495752 L2.62144633,18.9495752 L8.05808995,13.3473097 C8.18804956,13.2361536 8.3396691,13.16946 8.49128865,13.16946 C8.66456813,13.16946 8.81618767,13.2361536 8.92448734,13.3473097 L8.92448734,13.3473097 L11.9135583,16.415217 L15.9423062,12.3024427 L14.4910906,12.3024427 C14.1445316,12.3024427 13.8846124,12.013437 13.8846124,11.6799688 C13.8846124,11.3242694 14.1661916,11.0574948 14.4910906,11.0574948 L14.4910906,11.0574948 L17.3935218,11.0574948 L17.3935218,11.0574948 Z M0.78035188,4.18805019 C2.27488738,1.05344925 5.76213687,-0.613891679 9.05444695,0.208663179 C12.8449355,1.1423741 15.1192287,4.81052414 14.66437,8.5009054 C14.6427101,8.70098631 14.5127505,8.87883601 14.339471,8.96776086 L14.339471,8.96776086 L14.2961512,8.98999207 C13.8846124,9.19007298 13.4080938,8.81214237 13.4730736,8.34528691 C13.8412925,5.25514839 11.9135583,2.16500987 8.72954793,1.40914865 C6.00039615,0.764443489 3.14128477,2.12054744 1.86334862,4.69936808 C0.390473055,7.67835054 1.45180986,11.1908821 4.00768216,12.8804542 C4.39756098,13.1472288 4.37590105,13.7474715 3.94270235,13.9475524 L3.94270235,13.9475524 L3.92104242,13.9697836 C3.74776294,14.0364773 3.53116359,14.0364773 3.37954405,13.9253212 C0.32549325,11.9022809 -0.952442899,7.76727539 0.78035188,4.18805019 Z M7.45161178,3.58780746 C7.62489126,3.58780746 7.711531,3.69896352 7.711531,3.92127565 L7.711531,3.92127565 L7.711531,4.36589989 C8.01477008,4.38813111 8.25302937,4.45482474 8.46962871,4.54374959 C8.66456813,4.63267444 8.85950754,4.78829293 9.01112708,4.96614263 C9.14108669,5.12176111 9.22772643,5.25514839 9.29270623,5.41076688 C9.35768604,5.56638536 9.40100591,5.69977264 9.40100591,5.83315991 C9.40100591,5.96654719 9.35768604,6.07770325 9.24938636,6.18885931 C9.14108669,6.30001537 9.03278702,6.3444778 8.88116747,6.3444778 C8.62124826,6.3444778 8.44796878,6.18885931 8.36132904,5.89985355 C8.2746893,5.56638536 8.05808995,5.32184203 7.711531,5.21068596 L7.711531,5.21068596 L7.711531,6.94472053 C8.03643002,7.05587659 8.31800917,7.12257023 8.51294858,7.21149508 C8.707888,7.27818872 8.90282741,7.38934478 9.05444695,7.54496326 C9.22772643,7.70058175 9.35768604,7.87843145 9.44432578,8.10074357 C9.53096552,8.3230557 9.57428539,8.54536782 9.63926519,8.83437358 C9.63926519,9.14561056 9.57428539,9.45684753 9.42266584,9.72362208 C9.2710463,10.0126278 9.05444695,10.23494 8.7728678,10.4127897 C8.46962871,10.5906394 8.14472969,10.6795642 7.75485087,10.7240266 L7.75485087,10.7240266 L7.75485087,11.0352636 C7.75485087,11.1908821 7.73319093,11.3242694 7.711531,11.390963 C7.66821113,11.4576566 7.60323132,11.5021191 7.49493165,11.5021191 C7.38663198,11.5021191 7.32165217,11.4798879 7.2783323,11.4131942 C7.23501243,11.3465006 7.2133525,11.2575757 7.2133525,11.1241885 L7.2133525,11.1241885 L7.2133525,10.7240266 C6.88845348,10.7017954 6.60687433,10.6128706 6.36861504,10.5017145 C6.13035576,10.3683272 5.91375641,10.23494 5.76213687,10.0570903 C5.61051733,9.87924056 5.50221765,9.67915965 5.41557791,9.50130995 C5.35059811,9.30122904 5.30727824,9.12337934 5.30727824,8.94552964 C5.30727824,8.81214237 5.35059811,8.70098631 5.45889778,8.58983025 C5.56719746,8.47867418 5.69715707,8.43421176 5.84877661,8.43421176 C5.95707628,8.43421176 6.06537596,8.45644297 6.1520157,8.52313661 C6.23865543,8.58983025 6.2819753,8.65652388 6.32529517,8.76767995 C6.41193491,9.01222328 6.45525478,9.19007298 6.52023459,9.30122904 C6.56355446,9.4123851 6.6501942,9.52354117 6.75849387,9.63469723 C6.86679354,9.72362208 7.01841309,9.81254693 7.19169256,9.85700935 L7.19169256,9.85700935 L7.19169256,7.90066266 C6.82347367,7.7895066 6.52023459,7.67835054 6.2819753,7.54496326 C6.02205609,7.4338072 5.82711667,7.2559575 5.67549713,7.01141417 C5.52387759,6.76687083 5.43723785,6.47786507 5.43723785,6.09993446 C5.43723785,5.633079 5.58885739,5.23291718 5.89209648,4.9216802 C6.19533557,4.61044323 6.62853426,4.43259353 7.19169256,4.38813111 L7.19169256,4.38813111 L7.19169256,3.94350686 C7.19169256,3.69896352 7.2783323,3.58780746 7.45161178,3.58780746 Z M7.68987106,8.05628115 L7.68987106,9.90147178 C7.97145021,9.85700935 8.18804956,9.74585329 8.3396691,9.56800359 C8.49128865,9.4123851 8.57792839,9.21230419 8.55626845,8.94552964 C8.55626845,8.70098631 8.49128865,8.52313661 8.3396691,8.38974933 C8.18804956,8.25636206 7.97145021,8.145206 7.68987106,8.05628115 L7.68987106,8.05628115 Z M7.2133525,5.16622354 C6.97509322,5.25514839 6.80181374,5.34407324 6.67185413,5.4552293 C6.54189452,5.58861657 6.47691472,5.76646627 6.47691472,5.9887784 C6.47691472,6.21109052 6.52023459,6.38894022 6.6501942,6.50009628 C6.75849387,6.61125234 6.95343328,6.72240841 7.19169256,6.81133326 L7.19169256,6.81133326 L7.2133525,6.81133326 Z" id="icon-nav-sales" fill="#FFFFFF" fill-rule="nonzero"></path>
    </g>
</svg>