<?xml version="1.0" encoding="UTF-8"?>
<svg width="20px" height="20px" viewBox="0 0 20 20" version="1.1" xmlns="http://www.w3.org/2000/svg" xmlns:xlink="http://www.w3.org/1999/xlink">
    <title>icon-nav-promotions@1.5x</title>
    <g id="V2" stroke="none" stroke-width="1" fill="none" fill-rule="evenodd">
        <g id="icon-nav-promotions" fill="#FFFFFF" fill-rule="nonzero">
            <path d="M8.14666667,1.66666667 L17.6433333,11.1625 L11.16,17.6433333 L1.66666667,8.15083333 L1.66666667,1.66666667 L8.14666667,1.66666667 Z M8.8375,0 L0,0 L0,8.84083333 L11.1591667,20 L20,11.1633333 L8.8375,0 Z M6.17833333,6.17833333 C5.5275,6.83 4.47333333,6.83 3.82083333,6.17916667 C3.17,5.52666667 3.17,4.4725 3.82083333,3.82166667 C4.4725,3.17 5.5275,3.17083333 6.17833333,3.82083333 C6.83,4.47333333 6.82916667,5.52666667 6.17833333,6.17833333 L6.17833333,6.17833333 Z M5.57166667,9.1075 L9.1075,5.57166667 L9.69666667,6.16083333 L6.16083333,9.69666667 L5.57166667,9.1075 L5.57166667,9.1075 Z M6.75,10.2858333 L10.2858333,6.75 L10.5808333,7.045 L7.045,10.5808333 L6.75,10.2858333 Z M9.1075,12.6433333 L12.6433333,9.1075 L12.9383333,9.4025 L9.4025,12.9383333 L9.1075,12.6433333 Z M7.63416667,11.17 L11.17,7.63416667 L12.0541667,8.51833333 L8.51833333,12.0541667 L7.63416667,11.17 Z M9.99083333,13.5266667 L13.5266667,9.99083333 L14.1158333,10.58 L10.58,14.1158333 L9.99083333,13.5266667 L9.99083333,13.5266667 Z M11.17,14.705 L14.705,11.17 L15,11.465 L11.465,15 L11.17,14.705 Z" id="Shape"></path>
        </g>
    </g>
</svg>