<?xml version="1.0" encoding="UTF-8"?>
<svg width="28px" height="27px" viewBox="0 0 28 27" version="1.1" xmlns="http://www.w3.org/2000/svg" xmlns:xlink="http://www.w3.org/1999/xlink">
    <title>icon-visitors-color@3x</title>
    <defs>
        <polygon id="path-1" points="0.00243970776 0.00661935484 9.27735484 0.00661935484 9.27735484 25.4857161 0.00243970776 25.4857161"></polygon>
    </defs>
    <g id="V2" stroke="none" stroke-width="1" fill="none" fill-rule="evenodd">
        <g id="icon-visitors" transform="translate(-0.000000, 0.000000)">
            <path d="M6.11874194,1.587 C7.87693548,1.58912903 9.30183871,3.01383871 9.30377419,4.77203226 C9.30377419,6.53119355 7.87770968,7.95706452 6.11874194,7.95706452 C4.35977419,7.95706452 2.93370968,6.53119355 2.93370968,4.77203226 C2.93370968,3.01306452 4.35977419,1.587 6.11874194,1.587" id="Fill-1" fill="#1EC4CF"></path>
            <path d="M15.5291806,16.5989032 C15.2721484,16.8555484 14.9233742,16.9995484 14.5600839,16.999355 L13.6500194,16.999355 L13.6500194,14.2693548 L14.4553742,14.2693548 C14.8701484,14.2716774 15.2659548,14.4423871 15.5520194,14.7425806 C15.800729,14.9972903 15.9356323,15.3421935 15.9251806,15.698129 C15.9066,16.0364516 15.7660839,16.3565806 15.5291806,16.5989032 L15.5291806,16.5989032 Z M12.7401484,16.9993548 L7.7349871,16.9993548 C7.5849871,16.9993548 4.09492258,16.9583226 4.09492258,13.3594839 C4.09492258,13.1080645 3.89130968,12.9042581 3.64008387,12.9042581 C3.38866452,12.9042581 3.18505161,13.1080645 3.18505161,13.3594839 C3.18505161,16.9993548 6.12892258,17.7272903 7.27995484,17.8685806 L7.27995484,25.473871 C7.27918065,25.7249032 7.07595484,25.928129 6.82511613,25.9289032 L0.455051613,25.9289032 C0.204019355,25.928129 0.000793548387,25.7249032 1.93548387e-05,25.473871 L1.93548387e-05,12.5996129 C0.00621290323,11.5728387 0.420212903,10.5905806 1.15105161,9.86941935 C1.80582581,9.1976129 2.70214839,8.81574194 3.64008387,8.80935484 L3.66272903,8.80935484 C5.66343871,8.82348387 7.27840645,10.4487097 7.27995484,12.4494194 C7.27976129,13.4543226 8.0942129,14.2691613 9.09911613,14.2693548 L9.10008387,14.2693548 L12.7401484,14.2693548 L12.7401484,16.9993548 Z" id="Fill-3" fill="#1EC4CF"></path>
            <g id="Group-7" transform="translate(17.806452, 0.186968)">
                <mask id="mask-2" fill="white">
                    <use xlink:href="#path-1"></use>
                </mask>
                <g id="Clip-6"></g>
                <path d="M9.16060645,24.4266194 C9.15925161,24.7109419 9.0471871,24.9776516 8.84512258,25.1775871 C8.6444129,25.3763613 8.37867097,25.4857161 8.09628387,25.4857161 L8.09105806,25.4857161 L4.61415484,25.4682968 C4.32963871,25.4667484 4.06292903,25.3546839 3.8628,25.1526194 C3.66286452,24.9505548 3.55331613,24.6826839 3.55484832,24.3983613 L3.57576774,20.2314581 C3.57692903,20.2301032 3.57828387,20.2287484 3.57963871,20.2272 C3.61699355,20.1913935 3.65221935,20.1534581 3.68763871,20.1155226 C3.70215484,20.0996516 3.71725161,20.0843613 3.73138065,20.0682968 C3.76389677,20.0315226 3.79447742,19.9932 3.82505806,19.9544903 C3.83996129,19.9355226 3.85505806,19.9169419 3.86938065,19.8977806 C3.89783226,19.8596516 3.92454194,19.8205548 3.95086452,19.7808774 C3.96538065,19.7592 3.97970323,19.737329 3.99383226,19.7152645 C4.01783226,19.6765548 4.04086452,19.6372645 4.06312258,19.5972 C4.07705806,19.5718452 4.0908,19.5461032 4.10415484,19.5201677 C4.12389677,19.4818452 4.14267097,19.443329 4.16067097,19.4040387 C4.17460645,19.373071 4.18757419,19.3417161 4.20034839,19.3101677 C4.21486452,19.2741677 4.22976774,19.2381677 4.24312258,19.2013935 C4.25744516,19.1609419 4.26983226,19.1197161 4.28260645,19.0784903 C4.29150968,19.0486839 4.30157419,19.0194581 4.30970323,18.989071 C4.32905806,18.9157161 4.34628387,18.8417806 4.35944516,18.7666839 L6.18189677,8.47784516 C6.30692903,7.77216774 6.14957419,7.06010323 5.73905806,6.47287742 C5.68776774,6.39932903 5.6331871,6.32907097 5.57589677,6.26190968 C5.42047742,6.08016774 5.24183226,5.92397419 5.04731613,5.79178065 C4.95421935,5.72849032 4.8584129,5.66887742 4.75776774,5.61778065 C4.52473548,5.49952258 4.27273548,5.41494194 4.00815484,5.36810323 C4.0068,5.36790968 4.00544516,5.36790968 4.00409032,5.36771613 C3.92763871,5.35436129 3.8504129,5.34545806 3.7731871,5.33887742 C3.74783226,5.33655484 3.72267097,5.3348129 3.69731613,5.33345806 C3.68144516,5.33249032 3.66596129,5.33055484 3.65009032,5.32997419 L3.67157419,1.06571613 C3.67273548,0.781393548 3.78499355,0.514683871 3.98705806,0.314748387 C4.18776774,0.115974194 4.45350968,0.00661935484 4.73589677,0.00661935484 L4.74131613,0.00661935484 L8.21821935,0.0240387097 C8.80505806,0.0269419355 9.28021935,0.506941935 9.27752121,1.09378065 L9.16060645,24.4266194 Z M1.41867097,19.9873935 L1.41886452,19.9873935 C0.967703226,19.9074581 0.5748,19.6568129 0.312154839,19.281329 C0.0498967742,18.9060387 -0.0507483871,18.4506194 0.0291870968,17.9996516 L1.85163871,7.7108129 C1.98073548,6.98132903 2.55634839,6.44326452 3.24673548,6.32229677 C3.29454194,6.31397419 3.34234839,6.30778065 3.38996129,6.30332903 C3.39615484,6.30274839 3.40215484,6.30236129 3.40834839,6.30197419 C3.44996129,6.29868387 3.49138065,6.29674839 3.5328,6.29633612 C3.55292903,6.29616774 3.57325161,6.29713548 3.59338065,6.29771613 C3.62299355,6.29849032 3.65260645,6.29907097 3.68183226,6.3015871 C3.72983226,6.30545806 3.77802581,6.31126452 3.82621935,6.31939355 C3.83067097,6.32016774 3.83492903,6.32036129 3.83938065,6.32113548 C4.12138065,6.37107097 4.38054194,6.48778065 4.59944516,6.66003871 C4.73067097,6.7632 4.84757419,6.88649032 4.94609032,7.02739355 C5.20834839,7.40268387 5.30899355,7.85810323 5.22905806,8.30907097 L3.40660645,18.5979097 C3.39692903,18.6521032 3.38434839,18.7049419 3.36983226,18.7572 C3.36305806,18.7821677 3.35415484,18.8063613 3.34621935,18.8309419 C3.33770323,18.8568774 3.32957419,18.8826194 3.32009032,18.9077806 C3.30847742,18.9387484 3.29492903,18.9687484 3.28157419,18.9987484 C3.27363871,19.0159742 3.26628387,19.0335871 3.25796129,19.0506194 C3.24170323,19.0837161 3.22389677,19.1162323 3.20550968,19.1483613 C3.19834839,19.1605548 3.19138065,19.1729419 3.18402581,19.1851355 C3.16350968,19.2192 3.14144516,19.2524903 3.1184129,19.2850065 C3.11202581,19.2941032 3.10563871,19.3032 3.09905806,19.3121032 C3.07409032,19.3459742 3.04796129,19.3788774 3.02067097,19.4108129 C3.01486452,19.4175871 3.00905806,19.4241677 3.00325161,19.4307484 C2.97402581,19.4636516 2.94383226,19.4957806 2.91189677,19.5267484 C2.90725161,19.5312 2.9024129,19.5354581 2.89776774,19.5401032 C2.86409032,19.5718452 2.82944516,19.6026194 2.79325161,19.6318452 C2.42067097,19.9318452 1.92634839,20.0770065 1.41867097,19.9873935 L1.41867097,19.9873935 Z" id="Fill-5" fill="#1EC4CF" mask="url(#mask-2)"></path>
            </g>
        </g>
    </g>
</svg>