<?xml version="1.0" encoding="UTF-8"?>
<svg width="20px" height="20px" viewBox="0 0 20 20" version="1.1" xmlns="http://www.w3.org/2000/svg" xmlns:xlink="http://www.w3.org/1999/xlink">
    <title>icon-nav-customers@1.5x</title>
    <defs>
        <polygon id="path-1" points="0 -0.000612244898 16.1897578 -0.000612244898 16.1897578 18.5714082 0 18.5714082"></polygon>
        <polygon id="path-3" points="0.100142857 0.0449183673 10.055102 0.0449183673 10.055102 10 0.100142857 10"></polygon>
    </defs>
    <g id="V2" stroke="none" stroke-width="1" fill="none" fill-rule="evenodd">
        <g id="icon-nav-customers">
            <path d="M8.09602041,7.56997959 C9.85989796,7.56997959 11.289898,6.13997959 11.289898,4.37610204 C11.289898,2.61222449 9.85989796,1.18222449 8.09602041,1.18222449 L8.08989796,1.18222449 C6.32928571,1.18793878 4.90438776,2.6154898 4.90214286,4.37610204 C4.90214286,6.13997959 6.33193878,7.56997959 8.09602041,7.56997959" id="Fill-1" fill="#FFFFFF"></path>
            <g id="Group-5" transform="translate(0.000000, 0.000592)">
                <mask id="mask-2" fill="white">
                    <use xlink:href="#path-1"></use>
                </mask>
                <g id="Clip-4"></g>
                <path d="M14.0572449,8.8965102 C14.2505102,8.89671429 14.4413265,8.90712245 14.629898,8.92487755 C14.6313265,8.9232449 14.6333673,8.92202041 14.6347959,8.92038776 C16.2839796,6.66304082 16.6484694,3.71344898 15.5980612,1.12242857 C15.2586735,0.268142857 14.3182653,-0.180428571 13.4409184,0.0938571429 C13.4264286,0.0989591837 13.4121429,0.103857143 13.3978571,0.109163265 C12.5162245,0.438755102 12.0686735,1.42038776 12.3980612,2.30202041 L12.4368367,2.40814286 C12.5390816,2.66202041 12.6215306,2.9232449 12.6837755,3.18977551 C12.9978571,4.67977551 12.5694898,6.22977551 11.5347959,7.34691837 C10.6503061,8.29406122 9.41377551,8.8332449 8.11785714,8.83712245 C5.52561224,8.84487755 3.41785714,6.74936735 3.41030612,4.15712245 C3.40969388,3.54732653 3.52908163,2.94344898 3.76132653,2.37957143 C4.10744898,1.53528571 3.74091837,0.566918367 2.92255102,0.163244898 C2.90091837,0.153040816 2.8794898,0.143244898 2.85744898,0.134061224 C1.9905102,-0.232061224 0.990918367,0.173857143 0.624591837,1.04079592 C-0.589285714,3.94569388 -0.0043877551,7.29120408 2.12255102,9.61222449 C3.26255102,10.8507959 3.89765306,12.4716122 3.90214286,14.1552857 L3.90214286,17.7795714 C3.90214286,18.2169184 4.25663265,18.5714082 4.69397959,18.5714082 L8.63887755,18.5714082 C8.76806122,18.5714082 8.88459184,18.5218163 8.97438776,18.4426327 C8.31581633,17.465898 7.93132653,16.2891633 7.93132653,15.0226327 C7.93132653,11.6391633 10.6739796,8.8965102 14.0572449,8.8965102" id="Fill-3" fill="#FFFFFF" mask="url(#mask-2)"></path>
            </g>
            <path d="M14.4068163,15.5781837 L14.4068163,16.8059388 C14.5829388,16.7957347 14.7213061,16.7369592 14.8225306,16.6306327 C14.9233469,16.5251224 14.9739592,16.3810408 14.9739592,16.1996122 C14.9739592,16.0187959 14.920898,15.8828776 14.8145714,15.7918571 C14.708449,15.701449 14.5725306,15.6300204 14.4068163,15.5781837" id="Fill-6" fill="#FFFFFF"></path>
            <path d="M13.3270204,13.7294898 C13.3270204,13.8952041 13.3764082,14.0223469 13.4747755,14.110102 C13.5729388,14.1980612 13.7051837,14.2631633 13.8706939,14.3041837 L13.8706939,13.1776531 C13.730898,13.1933673 13.6055918,13.2466327 13.4939592,13.3370408 C13.3827347,13.4278571 13.3270204,13.5582653 13.3270204,13.7294898" id="Fill-8" fill="#FFFFFF"></path>
            <g id="Group-12" transform="translate(8.979592, 10.000592)">
                <mask id="mask-4" fill="white">
                    <use xlink:href="#path-3"></use>
                </mask>
                <g id="Clip-11"></g>
                <path d="M7.07034694,6.87104082 C6.96912245,7.08083673 6.83442857,7.25593878 6.66646939,7.39573469 C6.49789796,7.53553061 6.30626531,7.64144898 6.09136735,7.71430612 C5.87646939,7.78634694 5.65504082,7.82573469 5.42728571,7.83063265 L5.42728571,8.39757143 L4.85218367,8.39757143 L4.85218367,7.83063265 C4.51565306,7.81981633 4.17646939,7.7567551 3.83483673,7.64042857 C3.493,7.52389796 3.19259184,7.349 2.93361224,7.11553061 C3.06830612,6.97593878 3.20422449,6.83491837 3.34136735,6.69267347 C3.4785102,6.54981633 3.61442857,6.40634694 3.74953061,6.26165306 C3.81646939,6.33940816 3.89708163,6.41002041 3.98993878,6.47532653 C4.08320408,6.53961224 4.17912245,6.59532653 4.2774898,6.64206122 C4.37585714,6.68879592 4.47422449,6.72614286 4.57279592,6.75471429 C4.67116327,6.78308163 4.76442857,6.79777551 4.85218367,6.79777551 L4.85218367,5.43797959 C4.62973469,5.37593878 4.41606122,5.30573469 4.21157143,5.22777551 C4.00667347,5.15063265 3.82687755,5.04961224 3.67157143,4.92512245 C3.51606122,4.80104082 3.39197959,4.64940816 3.29871429,4.47042857 C3.20544898,4.29226531 3.15891837,4.0734898 3.15891837,3.81430612 C3.15891837,3.56083673 3.21034694,3.33389796 3.31422449,3.13471429 C3.41789796,2.93553061 3.55238776,2.7667551 3.71810204,2.62961224 C3.88381633,2.49246939 4.07014286,2.38614286 4.2774898,2.31083673 C4.48463265,2.23634694 4.68912245,2.19328571 4.89116327,2.18328571 L4.89116327,1.64716327 L5.45830612,1.64716327 L5.45830612,2.17491837 C5.75340816,2.18573469 6.05667347,2.23757143 6.36728571,2.33063265 C6.67810204,2.4234898 6.95504082,2.569 7.19830612,2.76553061 C6.94442857,3.05573469 6.69361224,3.33777551 6.44504082,3.61206122 C6.31544898,3.48287755 6.15993878,3.38185714 5.97891837,3.30920408 C5.7974898,3.23716327 5.62422449,3.19797959 5.45830612,3.19287755 L5.45830612,4.43573469 C5.66014286,4.49777551 5.86463265,4.56797959 6.07197959,4.64573469 C6.27912245,4.7234898 6.46810204,4.82695918 6.63912245,4.95593878 C6.81014286,5.08573469 6.94993878,5.24369388 7.0585102,5.43022449 C7.16728571,5.6167551 7.22177551,5.84940816 7.22177551,6.12940816 C7.22177551,6.41389796 7.17116327,6.66185714 7.07034694,6.87104082 M5.07769388,0.0449183673 C2.32871429,0.0449183673 0.100142857,2.2734898 0.100142857,5.02246939 C0.100142857,7.77144898 2.32871429,10.0000204 5.07769388,10.0000204 C7.82667347,10.0000204 10.0552449,7.77144898 10.0552449,5.02246939 C10.0517755,2.27491837 7.8252449,0.0481836735 5.07769388,0.0449183673" id="Fill-10" fill="#FFFFFF" mask="url(#mask-4)"></path>
            </g>
        </g>
    </g>
</svg>