<?xml version="1.0" encoding="UTF-8"?>
<svg width="20px" height="16px" viewBox="0 0 20 16" version="1.1" xmlns="http://www.w3.org/2000/svg" xmlns:xlink="http://www.w3.org/1999/xlink">
    <title>icon-nav-advertisments@1.5x</title>
    <g id="V2" stroke="none" stroke-width="1" fill="none" fill-rule="evenodd">
        <path d="M12.1632172,0.0935337367 C12.3559876,-0.0251399404 12.5989893,-0.0313051898 12.7977067,0.0774359689 C12.9964241,0.186177128 13.1194879,0.392659039 13.1190324,0.61657034 L13.1190324,0.61657034 L13.1190324,4.9239306 L14.9931799,4.9239306 C15.338201,4.9239306 15.6178958,5.19942644 15.6178958,5.53926778 L15.6178958,5.53926778 L15.6178958,8.0006165 C15.6178958,8.34045784 15.338201,8.61595368 14.9931799,8.61595368 L14.9931799,8.61595368 L13.1190324,8.61595368 L13.1190324,12.9233139 C13.1194879,13.1472252 12.9964241,13.3537072 12.7977067,13.4624483 C12.5989893,13.5711895 12.3559876,13.5650242 12.1632172,13.4463505 L12.1632172,13.4463505 L7.31760888,10.4619652 L6.24715831,10.4619652 L6.24715831,13.4389665 L6.81283849,15.1105299 C6.90923563,15.3013423 6.89852364,15.527701 6.78452398,15.7088535 C6.67052432,15.890006 6.46947258,16 6.25309311,16 L6.25309311,16 L3.12357915,16 C2.77855813,16 2.49886332,15.724504 2.49886332,15.3846627 L2.49886332,15.3846627 L2.49886332,10.4619652 L1.87414749,10.4619652 C0.839512634,10.4609476 0.001033086,9.63505591 0,8.61595368 L0,8.61595368 L0,4.9239306 C0.001033086,3.90482837 0.839512634,3.07893664 1.87414749,3.07791906 L1.87414749,3.07791906 L7.31760888,3.07791906 Z M4.99772665,10.4619652 L3.74829498,10.4619652 L3.74829498,14.7693255 L5.38067745,14.7693255 L5.02896244,13.7334053 C5.00799034,13.670563 4.99744304,13.6048009 4.99772665,13.5386511 L4.99772665,13.5386511 L4.99772665,10.4619652 Z M11.8696008,1.72663861 L8.1213058,4.03415304 L8.1213058,9.50573124 L11.8696008,11.8132457 L11.8696008,1.72663861 Z M16.98129,9.51133851 C17.1702718,9.23203767 17.5516293,9.15343512 17.8384482,9.33466751 L17.8384482,9.33466751 L19.7125957,10.5653419 C19.9026454,10.6854286 20.0121171,10.8971831 19.9989301,11.1192071 C19.9857431,11.3412311 19.8519498,11.5389674 19.6489803,11.6364066 C19.4460107,11.7338458 19.2054563,11.7158218 19.0197858,11.5892629 L19.0197858,11.5892629 L17.1456383,10.3585886 C16.8654284,10.1675886 16.7923083,9.79063936 16.98129,9.51133851 Z M6.87187414,4.30859342 L1.87414749,4.30859342 C1.52912647,4.30859342 1.24943166,4.58408926 1.24943166,4.9239306 L1.24943166,4.9239306 L1.24943166,8.61595368 C1.24943166,8.95579502 1.52912647,9.23129086 1.87414749,9.23129086 L1.87414749,9.23129086 L6.87187414,9.23129086 L6.87187414,4.30859342 Z M19.3661908,6.15460496 C19.7112118,6.15460496 19.9909066,6.4301008 19.9909066,6.76994214 C19.9909066,7.10978348 19.7112118,7.38527932 19.3661908,7.38527932 L19.3661908,7.38527932 L17.4920433,7.38527932 C17.1470222,7.38527932 16.8673274,7.10978348 16.8673274,6.76994214 C16.8673274,6.4301008 17.1470222,6.15460496 17.4920433,6.15460496 L17.4920433,6.15460496 Z M14.3684641,6.15460496 L13.1190324,6.15460496 L13.1190324,7.38527932 L14.3684641,7.38527932 L14.3684641,6.15460496 Z M19.0191611,1.95062135 C19.2048316,1.82406248 19.445386,1.80603845 19.6483556,1.90347764 C19.8513251,2.00091684 19.9851183,2.19865321 19.9983054,2.42067722 C20.0114924,2.64270123 19.9020207,2.85445565 19.711971,2.97454241 L19.711971,2.97454241 L17.8378235,4.20521677 C17.7355652,4.27277909 17.6151757,4.30877148 17.4920433,4.30859408 C17.2166783,4.30879 16.9736576,4.13137241 16.8937538,3.87181132 C16.8138499,3.61225024 16.9159098,3.33176801 17.1450136,3.18129571 L17.1450136,3.18129571 Z" id="icon-nav-advertisments" fill="#FFFFFF" fill-rule="nonzero"></path>
    </g>
</svg>