<?xml version="1.0" encoding="UTF-8"?>
<svg width="12px" height="20px" viewBox="0 0 12 20" version="1.1" xmlns="http://www.w3.org/2000/svg" xmlns:xlink="http://www.w3.org/1999/xlink">
    <title>icon-nav-trafficanalysis@1.5x</title>
    <g id="V2" stroke="none" stroke-width="1" fill="none" fill-rule="evenodd">
        <g id="icon-nav-trafficanalysis" transform="translate(6.000000, 10.000000) scale(-1, 1) translate(-6.000000, -10.000000) " fill="#FFFFFF" fill-rule="nonzero">
            <path d="M8.93020033,14.6120884 C8.80775135,14.3467823 8.7261187,14.0814762 8.68530237,13.81617 L8.46081257,12.4080068 C8.46081257,12.4080068 8.44040441,12.4284149 8.41999625,12.4488231 C8.31795543,12.5508639 7.60366972,13.2447415 6.90979217,13.9182108 C6.78734319,14.0406598 6.64448604,14.183517 6.52203706,14.2855578 C6.60366972,14.7345374 6.7261187,15.1427006 6.90979217,15.5508639 L8.62407788,19.183517 C8.80775135,19.5712721 9.19550645,19.81617 9.62407788,19.81617 C9.78734319,19.81617 9.93020033,19.7753537 10.0934656,19.7141292 C10.644486,19.4488231 10.8689758,18.7957619 10.6240779,18.2651496 L8.93020033,14.6120884 Z" id="Path"></path>
            <path d="M11.134282,9.20392513 L10.6853024,8.3875986 C9.99142482,7.12229248 8.95060849,6.08147615 7.68530237,5.3875986 C6.97101665,4.9998435 6.64448604,4.89780268 6.31795543,4.89780268 L4.80775135,4.9998435 C4.35877176,5.02025166 4.03224114,5.22433329 2.7261187,6.89780268 C2.33836359,7.3875986 1.889384,7.81617003 1.35877176,8.1631088 L0.419996247,8.7753537 C-0.00857518186,9.06106799 -0.131024161,9.6120884 0.154690124,10.0406598 C0.44040441,10.4692313 0.991424818,10.5916802 1.41999625,10.3059659 L2.35877176,9.69372105 C3.01183298,9.26514962 3.60366972,8.73453738 4.09346563,8.12229248 L4.82815951,11.6120884 L3.39958808,12.9998435 C2.82815951,13.5712721 2.41999625,14.2651496 2.23632278,15.061068 L1.39958808,18.4488231 C1.25673094,19.0406598 1.62407788,19.6324966 2.21591461,19.7753537 C2.29754727,19.7957619 2.39958808,19.81617 2.48122074,19.81617 C2.97101665,19.81617 3.41999625,19.4692313 3.54244523,18.9794353 L4.35877176,15.5712721 C4.46081257,15.183517 4.64448604,14.8569864 4.93020033,14.5712721 C4.93020033,14.5712721 7.58326155,11.9794353 7.78734319,11.7753537 C8.37917992,11.2039251 8.17509829,10.5508639 8.07305747,9.63249656 C8.03224114,9.18351697 7.93020033,8.42841493 7.86897584,7.7753537 C8.33836359,8.20392513 8.74652686,8.69372105 9.07305747,9.26514962 L9.52203706,10.0814762 C9.68530237,10.3875986 10.011833,10.5508639 10.3179554,10.5508639 C10.4608126,10.5508639 10.6240779,10.5100476 10.7465269,10.4488231 C11.1955065,10.2039251 11.3587718,9.65290472 11.134282,9.20392513 Z" id="Path"></path>
            <circle id="Oval" transform="translate(5.275998, 2.428513) rotate(-6.211745) translate(-5.275998, -2.428513) " cx="5.27599829" cy="2.42851289" r="2.02034962"></circle>
        </g>
    </g>
</svg>