<?xml version="1.0" encoding="UTF-8"?>
<svg width="16px" height="28px" viewBox="0 0 16 28" version="1.1" xmlns="http://www.w3.org/2000/svg" xmlns:xlink="http://www.w3.org/1999/xlink">
    <title>icon-passers-color@3x</title>
    <g id="V2" stroke="none" stroke-width="1" fill="none" fill-rule="evenodd">
        <g id="icon-passers-color" fill="#008CD0" fill-rule="nonzero">
            <g id="icon-passers" transform="translate(8.000000, 14.000000) scale(-1, 1) translate(-8.000000, -14.000000) ">
                <path d="M12.5022805,20.4569238 C12.3308519,20.0854952 12.2165662,19.7140666 12.1594233,19.342638 L11.8451376,17.3712095 C11.8451376,17.3712095 11.8165662,17.3997809 11.7879947,17.4283523 C11.6451376,17.5712095 10.6451376,18.542638 9.67370903,19.4854952 C9.50228046,19.6569238 9.30228046,19.8569238 9.13085189,19.9997809 C9.2451376,20.6283523 9.41656617,21.1997809 9.67370903,21.7712095 L12.073709,26.8569238 C12.3308519,27.3997809 12.873709,27.742638 13.473709,27.742638 C13.7022805,27.742638 13.9022805,27.6854952 14.1308519,27.5997809 C14.9022805,27.2283523 15.2165662,26.3140666 14.873709,25.5712095 L12.5022805,20.4569238 Z" id="Path"></path>
                <path d="M15.5879947,12.8854952 L14.9594233,11.742638 C13.9879947,9.97120947 12.5308519,8.51406661 10.7594233,7.54263804 C9.75942332,6.9997809 9.30228046,6.85692376 8.8451376,6.85692376 L6.73085189,6.9997809 C6.10228046,7.02835233 5.6451376,7.31406661 3.81656617,9.65692376 C3.27370903,10.342638 2.6451376,10.942638 1.90228046,11.4283523 L0.587994745,12.2854952 C-0.0120052546,12.6854952 -0.183433826,13.4569238 0.216566174,14.0569238 C0.616566174,14.6569238 1.38799475,14.8283523 1.98799475,14.4283523 L3.30228046,13.5712095 C4.21656617,12.9712095 5.0451376,12.2283523 5.73085189,11.3712095 L6.75942332,16.2569238 L4.75942332,18.1997809 C3.95942332,18.9997809 3.38799475,19.9712095 3.13085189,21.0854952 L1.95942332,25.8283523 C1.75942332,26.6569238 2.27370903,27.4854952 3.10228046,27.6854952 C3.21656617,27.7140666 3.35942332,27.742638 3.47370903,27.742638 C4.15942332,27.742638 4.78799475,27.2569238 4.95942332,26.5712095 L6.10228046,21.7997809 C6.2451376,21.2569238 6.50228046,20.7997809 6.90228046,20.3997809 C6.90228046,20.3997809 10.6165662,16.7712095 10.9022805,16.4854952 C11.7308519,15.6854952 11.4451376,14.7712095 11.3022805,13.4854952 C11.2451376,12.8569238 11.1022805,11.7997809 11.0165662,10.8854952 C11.673709,11.4854952 12.2451376,12.1712095 12.7022805,12.9712095 L13.3308519,14.1140666 C13.5594233,14.542638 14.0165662,14.7712095 14.4451376,14.7712095 C14.6451376,14.7712095 14.873709,14.7140666 15.0451376,14.6283523 C15.673709,14.2854952 15.9022805,13.5140666 15.5879947,12.8854952 Z" id="Path"></path>
                <circle id="Oval" transform="translate(7.386398, 3.399918) rotate(-6.211745) translate(-7.386398, -3.399918) " cx="7.3863976" cy="3.39991804" r="2.82848947"></circle>
            </g>
        </g>
    </g>
</svg>