<?xml version="1.0" encoding="UTF-8"?>
<svg width="28px" height="28px" viewBox="0 0 28 28" version="1.1" xmlns="http://www.w3.org/2000/svg" xmlns:xlink="http://www.w3.org/1999/xlink">
    <title>icon-customers-color@3x</title>
    <defs>
        <polygon id="path-1" points="0 -0.000857142857 22.6656609 -0.000857142857 22.6656609 25.9999714 0 25.9999714"></polygon>
        <polygon id="path-3" points="0.1402 0.0628857143 14.0771429 0.0628857143 14.0771429 14 0.1402 14"></polygon>
    </defs>
    <g id="V2" stroke="none" stroke-width="1" fill="none" fill-rule="evenodd">
        <g id="icon-customers">
            <path d="M11.3344286,10.5979714 C13.8038571,10.5979714 15.8058571,8.59597143 15.8058571,6.12654286 C15.8058571,3.65711429 13.8038571,1.65511429 11.3344286,1.65511429 L11.3258571,1.65511429 C8.861,1.66311429 6.86614286,3.66168571 6.863,6.12654286 C6.863,8.59597143 8.86471429,10.5979714 11.3344286,10.5979714" id="Fill-1" fill="#75BD37"></path>
            <g id="Group-5" transform="translate(0.000000, 0.000829)">
                <mask id="mask-2" fill="white">
                    <use xlink:href="#path-1"></use>
                </mask>
                <g id="Clip-4"></g>
                <path d="M19.6801429,12.4551143 C19.9507143,12.4554 20.2178571,12.4699714 20.4818571,12.4948286 C20.4838571,12.4925429 20.4867143,12.4908286 20.4887143,12.4885429 C22.7975714,9.32825714 23.3078571,5.19882857 21.8372857,1.5714 C21.3621429,0.3754 20.0455714,-0.2526 18.8172857,0.1314 C18.797,0.138542857 18.777,0.1454 18.757,0.152828571 C17.5227143,0.614257143 16.8961429,1.98854286 17.3572857,3.22282857 L17.4115714,3.3714 C17.5547143,3.72682857 17.6701429,4.09254286 17.7572857,4.46568571 C18.197,6.55168571 17.5972857,8.72168571 16.1487143,10.2856857 C14.9104286,11.6116857 13.1792857,12.3665429 11.365,12.3719714 C7.73585714,12.3828286 4.785,9.44911429 4.77442857,5.81997143 C4.77357143,4.96625714 4.94071429,4.12082857 5.26585714,3.3314 C5.75042857,2.1494 5.23728571,0.793685714 4.09157143,0.228542857 C4.06128571,0.214257143 4.03128571,0.200542857 4.00042857,0.187685714 C2.78671429,-0.324885714 1.38728571,0.2434 0.874428571,1.45711429 C-0.825,5.52397143 -0.00614285714,10.2076857 2.97157143,13.4571143 C4.56757143,15.1911143 5.45671429,17.4602571 5.463,19.8174 L5.463,24.8914 C5.463,25.5036857 5.95928571,25.9999714 6.57157143,25.9999714 L12.0944286,25.9999714 C12.2752857,25.9999714 12.4384286,25.9305429 12.5641429,25.8196857 C11.6421429,24.4522571 11.1038571,22.8048286 11.1038571,21.0316857 C11.1038571,16.2948286 14.9435714,12.4551143 19.6801429,12.4551143" id="Fill-3" fill="#75BD37" mask="url(#mask-2)"></path>
            </g>
            <path d="M20.1695429,21.8094571 L20.1695429,23.5283143 C20.4161143,23.5140286 20.6098286,23.4317429 20.7515429,23.2828857 C20.8926857,23.1351714 20.9635429,22.9334571 20.9635429,22.6794571 C20.9635429,22.4263143 20.8892571,22.2360286 20.7404,22.1086 C20.5918286,21.9820286 20.4015429,21.8820286 20.1695429,21.8094571" id="Fill-6" fill="#75BD37"></path>
            <path d="M18.6578286,19.2212857 C18.6578286,19.4532857 18.7269714,19.6312857 18.8646857,19.7541429 C19.0021143,19.8772857 19.1872571,19.9684286 19.4189714,20.0258571 L19.4189714,18.4487143 C19.2232571,18.4707143 19.0478286,18.5452857 18.8915429,18.6718571 C18.7358286,18.799 18.6578286,18.9815714 18.6578286,19.2212857" id="Fill-8" fill="#75BD37"></path>
            <g id="Group-12" transform="translate(12.571429, 14.000829)">
                <mask id="mask-4" fill="white">
                    <use xlink:href="#path-3"></use>
                </mask>
                <g id="Clip-11"></g>
                <path d="M9.89848571,9.61945714 C9.75677143,9.91317143 9.5682,10.1583143 9.33305714,10.3540286 C9.09705714,10.5497429 8.82877143,10.6980286 8.52791429,10.8000286 C8.22705714,10.9008857 7.91705714,10.9560286 7.5982,10.9628857 L7.5982,11.7566 L6.79305714,11.7566 L6.79305714,10.9628857 C6.32191429,10.9477429 5.84705714,10.8594571 5.36877143,10.6966 C4.8902,10.5334571 4.46962857,10.2886 4.10705714,9.96174286 C4.29562857,9.76631429 4.48591429,9.56888571 4.67791429,9.36974286 C4.86991429,9.16974286 5.0602,8.96888571 5.24934286,8.76631429 C5.34305714,8.87517143 5.45591429,8.97402857 5.58591429,9.06545714 C5.71648571,9.15545714 5.85077143,9.23345714 5.98848571,9.29888571 C6.1262,9.36431429 6.26391429,9.4166 6.40191429,9.4566 C6.53962857,9.49631429 6.6702,9.51688571 6.79305714,9.51688571 L6.79305714,7.61317143 C6.48162857,7.52631429 6.18248571,7.42802857 5.8962,7.31888571 C5.60934286,7.21088571 5.35762857,7.06945714 5.1402,6.89517143 C4.92248571,6.72145714 4.74877143,6.50917143 4.6182,6.2586 C4.48762857,6.00917143 4.42248571,5.70288571 4.42248571,5.34002857 C4.42248571,4.98517143 4.49448571,4.66745714 4.63991429,4.3886 C4.78505714,4.10974286 4.97334286,3.87345714 5.20534286,3.68145714 C5.43734286,3.48945714 5.6982,3.3406 5.98848571,3.23517143 C6.27848571,3.13088571 6.56477143,3.0706 6.84762857,3.0566 L6.84762857,2.30602857 L7.64162857,2.30602857 L7.64162857,3.04488571 C8.05477143,3.06002857 8.47934286,3.1326 8.9142,3.26288571 C9.34934286,3.39288571 9.73705714,3.5966 10.0776286,3.87174286 C9.7222,4.27802857 9.37105714,4.67288571 9.02305714,5.05688571 C8.84162857,4.87602857 8.62391429,4.7346 8.37048571,4.63288571 C8.11648571,4.53202857 7.87391429,4.47717143 7.64162857,4.47002857 L7.64162857,6.21002857 C7.9242,6.29688571 8.21048571,6.39517143 8.50077143,6.50402857 C8.79077143,6.61288571 9.05534286,6.75774286 9.29477143,6.93831429 C9.5342,7.12002857 9.72991429,7.34117143 9.88191429,7.60231429 C10.0342,7.86345714 10.1104857,8.18917143 10.1104857,8.58117143 C10.1104857,8.97945714 10.0396286,9.3266 9.89848571,9.61945714 M7.10877143,0.0628857143 C3.2602,0.0628857143 0.1402,3.18288571 0.1402,7.03145714 C0.1402,10.8800286 3.2602,14.0000286 7.10877143,14.0000286 C10.9573429,14.0000286 14.0773429,10.8800286 14.0773429,7.03145714 C14.0724857,3.18488571 10.9553429,0.0674571429 7.10877143,0.0628857143" id="Fill-10" fill="#75BD37" mask="url(#mask-4)"></path>
            </g>
        </g>
    </g>
</svg>